<svg xmlns="http://www.w3.org/2000/svg" viewBox="0 0 187.61 211.49"><defs><style>.cls-1{fill:#066b30;}</style></defs><title>Recurso 7</title><g id="Capa_2" data-name="Capa 2"><g id="Capa_1-2" data-name="Capa 1"><polygon points="31.3 0 31.3 15.09 150.9 15.09 150.9 74.33 165.43 64.83 165.43 0 31.3 0"/><polygon points="134.69 28.81 134.69 42.78 14.53 42.78 14.53 178.16 0 178.16 0 28.81 134.69 28.81"/><path class="cls-1" d="M187.14,68.32,85.17,158a6.05,6.05,0,0,1-9.06-1.24l-28.7-44.17a1.31,1.31,0,0,1,1.86-1.78l31.32,22.54a1.31,1.31,0,0,0,1.48,0L185.56,66.23A1.31,1.31,0,0,1,187.14,68.32Z"/><rect x="37.3" y="166.55" width="128.13" height="11.61"/><ellipse cx="78.6" cy="202.04" rx="37.79" ry="9.45"/><path d="M165.43,101.34l-14.78,11.42Z"/><polygon points="165.43 169.25 150.65 169.25 150.65 114.04 165.43 101.34 165.43 169.25"/><rect x="31.3" y="65.59" width="103.39" height="13.77"/></g></g></svg>