<svg xmlns="http://www.w3.org/2000/svg" viewBox="0 0 181.27 204.34"><defs><style>.cls-1{fill:#fff;}</style></defs><title>Recurso 8</title><g id="Capa_2" data-name="Capa 2"><g id="Capa_1-2" data-name="Capa 1"><polygon class="cls-1" points="30.24 0 30.24 14.58 145.8 14.58 145.8 71.82 159.84 62.64 159.84 0 30.24 0"/><polygon class="cls-1" points="130.14 27.83 130.14 41.33 14.04 41.33 14.04 172.15 0 172.15 0 27.83 130.14 27.83"/><path class="cls-1" d="M180.82,66,82.29,152.68a5.83,5.83,0,0,1-8.75-1.2L45.81,108.81a1.27,1.27,0,0,1,1.8-1.72l30.26,21.77a1.27,1.27,0,0,0,1.43,0L179.3,64A1.26,1.26,0,0,1,180.82,66Z"/><rect class="cls-1" x="36.04" y="160.93" width="123.8" height="11.22"/><rect class="cls-1" x="65.07" y="171.1" width="21.76" height="21.76"/><ellipse class="cls-1" cx="75.95" cy="195.21" rx="36.51" ry="9.13"/><path class="cls-1" d="M159.84,97.91l-14.28,11Z"/><polygon class="cls-1" points="159.84 163.54 145.56 163.54 145.56 110.19 159.84 97.91 159.84 163.54"/><rect class="cls-1" x="30.24" y="63.37" width="99.9" height="13.3"/></g></g></svg>